<!DOCTYPE svg PUBLIC "-//W3C//DTD SVG 1.1//EN" "http://www.w3.org/Graphics/SVG/1.1/DTD/svg11.dtd">
<!-- Uploaded to: SVG Repo, www.svgrepo.com, Transformed by: SVG Repo Mixer Tools -->
<svg fill="#ffffff" height="800px" width="800px" version="1.1" id="Capa_1" xmlns="http://www.w3.org/2000/svg" xmlns:xlink="http://www.w3.org/1999/xlink" viewBox="0 0 64.001 64.001" xml:space="preserve">
<g id="SVGRepo_bgCarrier" stroke-width="0"/>
<g id="SVGRepo_tracerCarrier" stroke-linecap="round" stroke-linejoin="round"/>
<g id="SVGRepo_iconCarrier"> <g id="Billiard-ball"> <path d="M25.397,25.247c-2.394-0.645-4.867,0.786-5.51,3.182c-0.376,1.404-0.028,2.824,0.795,3.896 c-1.776,0.526-3.247,1.929-3.761,3.845c-0.783,2.929,0.962,5.95,3.89,6.734c0.475,0.127,0.952,0.188,1.422,0.188 c2.428,0,4.655-1.623,5.313-4.078c0.529-1.978-0.097-3.995-1.46-5.339c1.183-0.538,2.131-1.568,2.493-2.918 c0.312-1.161,0.151-2.374-0.45-3.415C27.529,26.302,26.558,25.557,25.397,25.247z M25.615,38.497 c-0.5,1.865-2.425,2.975-4.286,2.476c-1.863-0.5-2.974-2.422-2.476-4.285c0.419-1.562,1.837-2.594,3.383-2.594 c0.299,0,0.603,0.039,0.903,0.119C25.003,34.713,26.114,36.635,25.615,38.497z M26.648,30.24c-0.356,1.331-1.733,2.122-3.063,1.767 c-1.331-0.357-2.123-1.73-1.767-3.06c0.3-1.116,1.313-1.854,2.416-1.854c0.213,0,0.43,0.028,0.645,0.085 c0.646,0.173,1.185,0.586,1.518,1.165C26.732,28.922,26.821,29.595,26.648,30.24z"/> <path d="M29.266,18.176c-4.313-1.168-8.821-0.578-12.7,1.662c-3.929,2.268-6.737,5.948-7.906,10.359 c-2.399,9.049,2.936,18.386,11.892,20.813c1.447,0.392,2.916,0.586,4.376,0.586c2.892,0,5.748-0.76,8.325-2.249 c3.929-2.269,6.736-5.947,7.905-10.358C43.558,29.939,38.223,20.602,29.266,18.176z M39.225,38.477 c-1.031,3.893-3.507,7.138-6.972,9.139c-3.414,1.971-7.383,2.492-11.178,1.464c-7.898-2.14-12.6-10.381-10.482-18.371 c1.031-3.893,3.507-7.139,6.972-9.14c2.269-1.31,4.782-1.979,7.326-1.979c1.285,0,2.578,0.17,3.851,0.516 C36.641,22.245,41.343,30.487,39.225,38.477z"/> <path d="M32,0C14.356,0,0,14.355,0,32c0,17.645,14.356,32,32,32c17.645,0,32-14.355,32-32C64.001,14.355,49.645,0,32,0z M32,62 C15.458,62,2,48.542,2,32S15.458,2,32,2c16.542,0,30,13.458,30,30S48.542,62,32,62z"/> <path d="M54.664,23.223c-2.428-6.108-5.884-12.104-14.657-14.592c-0.528-0.15-1.083,0.157-1.234,0.689 c-0.15,0.531,0.158,1.084,0.689,1.235c7.497,2.127,10.756,6.898,13.343,13.406c0.156,0.392,0.532,0.631,0.93,0.631 c0.123,0,0.248-0.023,0.369-0.071C54.617,24.318,54.867,23.737,54.664,23.223z"/> </g> </g>
</svg>