<?xml version="1.0" encoding="iso-8859-1"?>
<!-- Uploaded to: SVG Repo, www.svgrepo.com, Generator: SVG Repo Mixer Tools -->
<svg height="800px" width="800px" version="1.1" id="Layer_1" xmlns="http://www.w3.org/2000/svg" xmlns:xlink="http://www.w3.org/1999/xlink" 
	 viewBox="0 0 502.948 502.948" xml:space="preserve">
<g transform="translate(11 5)">
	<g>
		<path style="fill:#fff;" d="M265.648,58.481v25.6h-25.6c-14.507,0-25.6-11.093-25.6-25.6v-25.6h25.6
			C254.554,32.881,265.648,43.975,265.648,58.481z M350.981,32.881v25.6c0,14.507-11.093,25.6-25.6,25.6h-25.6v-25.6
			c0-14.507,11.093-25.6,25.6-25.6H350.981z"/>
		<path style="fill:#39396B;" d="M187.141,186.481h209.92h0.853c4.267,41.813,4.267,77.653,4.267,93.867
			c0,89.6-72.533,162.133-162.133,162.133S77.914,369.948,77.914,280.348c0-16.213,0-52.053,4.267-93.867h0.853H187.141z"/>
	</g>
	<path style="fill:#fff;" d="M187.141,186.481H83.034h-0.853c2.56-21.333,5.973-45.227,11.093-68.267h61.44h232.107
		c5.12,23.04,8.533,46.933,11.093,68.267h-0.853H187.141z"/>
</g>
<path style="fill:#fff;" d="M327.848,502.948h-153.6c-2.56,0-4.267-1.707-4.267-4.267s1.707-4.267,4.267-4.267h72.533v-42.667
	c-89.6-2.56-162.133-75.947-162.133-166.4c0-23.04,0-94.72,15.36-162.987c0.853-1.707,2.56-3.413,4.267-3.413h54.613L102.567,5.455
	c0-0.853-0.853-0.853-0.853-1.707c0-1.707,0.853-3.413,2.56-3.413c1.707-0.853,4.267,0,5.973,1.707l58.88,116.907h229.547
	c1.707,0,3.413,1.707,4.267,3.413c15.36,69.12,15.36,139.947,15.36,162.987c0,90.453-72.533,163.84-162.133,166.4v42.667h72.533
	c2.56,0,4.267,1.707,4.267,4.267C332.967,501.242,330.408,502.948,327.848,502.948z M97.448,195.748
	c-4.267,40.96-4.267,75.093-4.267,89.6c0,87.04,70.827,157.867,157.867,157.867s157.867-70.827,157.867-157.867
	c0-23.04,0-91.307-14.507-157.867H165.714l0,0h-58.027c-4.267,20.48-7.68,40.96-9.387,59.733h67.413c2.56,0,4.267,1.707,4.267,4.267
	c0,2.56-1.707,4.267-4.267,4.267H97.448z M263.848,409.081c-5.12,0-8.533-3.413-8.533-8.533s3.413-8.533,8.533-8.533
	c5.12,0,8.533,3.413,8.533,8.533S268.968,409.081,263.848,409.081z M259.581,332.281c-1.707,0-3.413-0.853-4.267-2.56l-76.8-170.667
	c0-0.853,0-0.853,0-1.707c0-1.707,0.853-3.413,2.56-4.267c2.56-0.853,4.267,0,5.973,2.56l14.507,32.427
	c0.853,0,0.853-0.853,1.707-0.853h167.253c2.56,0,4.267,1.707,4.267,4.267c0,2.56-1.707,4.267-4.267,4.267H204.968l58.88,130.56
	c0,0.853,0,0.853,0,1.707c0,1.707-0.853,3.413-2.56,4.267C260.434,332.281,260.434,332.281,259.581,332.281z M178.514,323.748
	c-5.12,0-8.533-3.413-8.533-8.533s3.413-8.533,8.533-8.533c5.12,0,8.533,3.413,8.533,8.533S183.634,323.748,178.514,323.748z
	 M306.514,281.081c-5.12,0-8.533-3.413-8.533-8.533c0-5.12,3.413-8.533,8.533-8.533s8.533,3.413,8.533,8.533
	C315.048,277.668,311.634,281.081,306.514,281.081z M336.381,93.348h-25.6c-2.56,0-4.267-1.707-4.267-4.267v-25.6
	c0-16.213,13.653-29.867,29.867-29.867h25.6c2.56,0,4.267,1.707,4.267,4.267v25.6C366.248,79.695,352.594,93.348,336.381,93.348z
	 M315.048,84.815h21.333c11.947,0,21.333-9.387,21.333-21.333V42.148h-21.333c-11.947,0-21.333,9.387-21.333,21.333V84.815z
	 M276.648,93.348h-25.6c-16.213,0-29.867-13.653-29.867-29.867v-25.6c0-2.56,1.707-4.267,4.267-4.267h25.6
	c16.213,0,29.867,13.653,29.867,29.867v25.6C280.914,91.641,279.208,93.348,276.648,93.348z M229.714,42.148v21.333
	c0,11.947,9.387,21.333,21.333,21.333h21.333V63.481c0-11.947-9.387-21.333-21.333-21.333H229.714z"/>
</svg>