<?xml version="1.0" encoding="iso-8859-1"?>
<!-- Uploaded to: SVG Repo, www.svgrepo.com, Generator: SVG Repo Mixer Tools -->
<svg fill="#fff" height="800px" width="800px" version="1.1" id="Layer_1" xmlns="http://www.w3.org/2000/svg" xmlns:xlink="http://www.w3.org/1999/xlink" 
	 viewBox="0 0 512.408 512.408" xml:space="preserve">
<g>
	<g>
		<path d="M356.292,322.698c-2.144-0.556-4.32,0.72-4.88,2.864c-8.5,32.692-37.672,54.656-72.592,54.656h-45.232
			c-38.784,0-63.632-21.6-66.472-57.78c-0.172-2.204-2.088-3.816-4.3-3.676c-2.204,0.172-3.848,2.1-3.676,4.3
			c3.16,40.188,31.684,65.156,74.448,65.156h45.228c38.624,0,70.908-24.372,80.34-60.644
			C359.708,325.438,358.428,323.254,356.292,322.698z"/>
	</g>
</g>
<g>
	<g>
		<path d="M337.072,171.346c-18.448-29.088-49.436-47.156-80.872-47.156c-34.552,0-70.42,20.836-81.664,47.436
			c-0.86,2.032,0.088,4.38,2.124,5.24c2.028,0.86,4.384-0.092,5.244-2.128c8.84-20.912,39.048-42.548,74.296-42.548
			c28.72,0,57.12,16.644,74.112,43.44c0.764,1.2,2.06,1.856,3.384,1.856c0.736,0,1.472-0.2,2.136-0.62
			C337.7,175.682,338.256,173.21,337.072,171.346z"/>
	</g>
</g>
<g>
	<g>
		<path d="M181.864,171.574c-6.064-13.712-27.304-24.52-44.48-28.764c-30.14-7.436-53.748-0.776-68.272,19.276
			c-1.296,1.788-0.896,4.288,0.892,5.584c1.788,1.292,4.288,0.892,5.584-0.896c15.74-21.724,41.252-20.8,59.88-16.2
			c18.16,4.488,34.96,14.904,39.084,24.236c0.664,1.496,2.128,2.384,3.664,2.384c0.54-0.004,1.088-0.112,1.608-0.344
			C181.844,175.958,182.76,173.594,181.864,171.574z"/>
	</g>
</g>
<g>
	<g>
		<path d="M166.32,320.314c-1.34-1.768-3.844-2.112-5.604-0.78c-11.688,8.844-26.14,10.584-39.624,4.78L85.104,308.85
			c-25.948-13.564-30.132-32.892-28.48-59.676c0.136-2.208-1.54-4.104-3.748-4.24c-2.168-0.116-4.104,1.544-4.24,3.748
			c-1.556,25.22,1.332,50.828,33.028,67.388l36.26,15.592c6.308,2.712,12.784,4.052,19.176,4.052
			c10.032,0,19.856-3.308,28.444-9.796C167.304,324.586,167.652,322.074,166.32,320.314z"/>
	</g>
</g>
<g>
	<g>
		<path d="M76.116,163.03c-10.172-27.008-35.964-40.168-54.028-36.888C8.256,128.662,0,139.894,0,156.19
			c0,65.468,26.604,87.136,38.04,93.412c3.788,2.076,8.448,3.812,12.296,3.812c1.684,0,3.212-0.332,4.436-1.112
			c1.864-1.188,2.416-3.66,1.228-5.524c-1.128-1.772-3.428-2.352-5.244-1.388c-1.404,0.252-7.144-0.832-14.168-6.32
			C25.916,230.726,8,208.862,8,156.194c0-12.476,5.512-20.352,15.524-22.176c14.904-2.7,36.388,8.684,45.108,31.836
			c0.772,2.068,3.08,3.108,5.152,2.332C75.852,167.406,76.896,165.098,76.116,163.03z"/>
	</g>
</g>
<g>
	<g>
		<path d="M443.284,162.086c-14.52-20.056-38.128-26.716-68.272-19.276c-17.164,4.24-38.404,15.052-44.48,28.764
			c-0.892,2.02,0.016,4.38,2.036,5.276c0.528,0.232,1.076,0.344,1.616,0.344c1.536-0.004,3-0.892,3.66-2.384
			c4.136-9.332,20.936-19.752,39.084-24.236c18.652-4.6,44.144-5.52,59.88,16.2c1.296,1.792,3.792,2.196,5.584,0.896
			C444.184,166.374,444.58,163.874,443.284,162.086z"/>
	</g>
</g>
<g>
	<g>
		<path d="M463.78,248.682c-0.136-2.204-2.04-3.86-4.24-3.748c-2.208,0.14-3.884,2.036-3.748,4.24
			c1.652,26.784-2.536,46.112-28.212,59.548l-36.26,15.592c-11.384,4.892-23.504,4.452-34.144-1.256
			c-1.952-1.044-4.376-0.308-5.416,1.636c-1.048,1.948-0.312,4.372,1.632,5.416c6.944,3.724,14.404,5.592,21.956,5.592
			c6.4,0,12.864-1.344,19.14-4.036l36.532-15.724C462.448,299.51,465.34,273.906,463.78,248.682z"/>
	</g>
</g>
<g>
	<g>
		<path d="M490.32,126.142c-18.06-3.28-43.856,9.88-54.028,36.888c-0.78,2.072,0.264,4.376,2.332,5.156
			c2.068,0.776,4.376-0.264,5.152-2.332c8.716-23.152,30.192-34.536,45.108-31.836c10.012,1.82,15.524,9.696,15.524,22.176
			c0,52.664-17.912,74.532-28.588,82.876c-7.024,5.488-12.764,6.568-14.168,6.32c-1.828-0.964-4.116-0.384-5.244,1.388
			c-1.188,1.864-0.636,4.336,1.228,5.524c1.224,0.78,2.752,1.112,4.436,1.112c3.844,0,8.508-1.736,12.296-3.812
			c11.44-6.28,38.04-27.948,38.04-93.412C512.408,139.894,504.152,128.662,490.32,126.142z"/>
	</g>
</g>
<g>
	<g>
		<path d="M173.836,216.574c-2.228-0.212-4.16,1.384-4.384,3.58L159.14,322.326c-0.22,2.2,1.38,4.16,3.58,4.384
			c0.14,0.016,0.276,0.02,0.408,0.02c2.032,0,3.772-1.536,3.976-3.6l10.312-102.172
			C177.636,218.758,176.036,216.798,173.836,216.574z"/>
	</g>
</g>
<g>
	<g>
		<path d="M178.62,169.198c-2.236-0.224-4.16,1.384-4.384,3.58l-1.108,10.992c-0.22,2.2,1.38,4.16,3.58,4.384
			c0.14,0.016,0.276,0.02,0.408,0.02c2.028,0,3.768-1.536,3.976-3.6l1.108-10.992C182.42,171.382,180.82,169.422,178.62,169.198z"/>
	</g>
</g>
<g>
	<g>
		<path d="M73.256,160.534c-2.148-0.508-4.3,0.836-4.8,2.988l-1.152,4.944c-0.504,2.152,0.836,4.304,2.988,4.804
			c0.308,0.072,0.612,0.104,0.912,0.104c1.816,0,3.46-1.244,3.888-3.092l1.152-4.944C76.748,163.186,75.408,161.034,73.256,160.534z
			"/>
	</g>
</g>
<g>
	<g>
		<path d="M66.768,188.354c-2.148-0.512-4.304,0.836-4.804,2.984l-13.236,56.68c-0.504,2.152,0.832,4.304,2.984,4.804
			c0.308,0.072,0.616,0.104,0.916,0.104c1.82,0,3.464-1.248,3.888-3.088l13.236-56.68C70.256,191.006,68.92,188.854,66.768,188.354z
			"/>
	</g>
</g>
<g>
	<g>
		<path d="M359.248,325.998l-14.96-106.056c-0.304-2.188-2.316-3.716-4.52-3.404c-2.188,0.308-3.712,2.332-3.404,4.52l14.96,106.056
			c0.28,1.996,1.996,3.44,3.956,3.44c0.18,0,0.372-0.012,0.564-0.036C358.032,330.21,359.556,328.186,359.248,325.998z"/>
	</g>
</g>
<g>
	<g>
		<path d="M339.112,183.274l-1.456-10.344c-0.308-2.188-2.288-3.728-4.52-3.404c-2.188,0.308-3.712,2.332-3.404,4.52l1.456,10.344
			c0.28,1.996,1.992,3.44,3.956,3.44c0.184,0,0.372-0.012,0.564-0.036C337.896,187.486,339.42,185.462,339.112,183.274z"/>
	</g>
</g>
<g>
	<g>
		<path d="M445.344,169.518l-1.404-5.996c-0.5-2.152-2.664-3.488-4.804-2.984c-2.152,0.5-3.488,2.652-2.984,4.804l1.404,5.996
			c0.432,1.844,2.076,3.088,3.892,3.088c0.3,0,0.608-0.036,0.912-0.104C444.512,173.822,445.848,171.67,445.344,169.518z"/>
	</g>
</g>
<g>
	<g>
		<path d="M463.676,248.018l-12.872-55.116c-0.5-2.152-2.668-3.488-4.804-2.984c-2.152,0.5-3.488,2.652-2.984,4.804l12.872,55.116
			c0.432,1.844,2.076,3.088,3.892,3.088c0.3,0,0.608-0.036,0.912-0.104C462.844,252.322,464.18,250.17,463.676,248.018z"/>
	</g>
</g>
</svg>