<!DOCTYPE svg PUBLIC "-//W3C//DTD SVG 1.1//EN" "http://www.w3.org/Graphics/SVG/1.1/DTD/svg11.dtd">

<!-- Uploaded to: SVG Repo, www.svgrepo.com, Transformed by: SVG Repo Mixer Tools -->
<svg fill="#ffffff" version="1.1" id="Layer_1" xmlns="http://www.w3.org/2000/svg" xmlns:xlink="http://www.w3.org/1999/xlink" viewBox="-17.01 -26.01 304.12 304.12" xml:space="preserve" width="600px" height="800px">

<g id="SVGRepo_bgCarrier" stroke-width="0"/>

<g id="SVGRepo_tracerCarrier" stroke-linecap="round" stroke-linejoin="round" stroke="#CCCCCC" stroke-width="7"/>

<g id="SVGRepo_iconCarrier"> <g> <g> <g> <path d="M129.274,20.484c-0.072-0.028-0.152-0.06-0.232-0.088c-5.12-1.828-10.356-1.732-15.56-0.536 c-4.116,0.948-4.88,2.396-3.172,6.26c2.148,4.856,4.56,9.596,6.932,14.352c1.064,2.136,2.304,4.188,3.664,6.648 c3.288-8.3,6.436-16.184,9.52-24.092C130.954,21.692,130.634,21.02,129.274,20.484z M121.37,39.996l-0.808,2.032 c-0.476-0.856-0.932-1.696-1.348-2.532l-0.984-1.976c-2.004-4.008-4.072-8.148-5.904-12.288 c-0.816-1.844-0.652-2.328-0.652-2.328c0.012-0.016,0.292-0.432,2.304-0.896c5.324-1.224,10.004-1.076,14.308,0.456 C126.03,28.26,123.73,34.048,121.37,39.996z"/> <path d="M126.906,47.024c6.632-2.448,13.28-4.852,19.876-7.4c2.292-0.884,2.848-2.284,1.692-4.38 c-2.728-4.952-6.536-8.916-11.652-11.464c-0.252-0.124-0.472-0.228-0.676-0.308c-1.208-0.48-1.632-0.128-2.444,1.3 c-4.148,7.3-6.836,15.232-10.148,23.344C124.914,47.676,125.922,47.384,126.906,47.024z M127.942,43.028 c2.372-6.06,4.612-11.784,7.672-17.164c0.036-0.064,0.068-0.12,0.1-0.172c0.04,0.02,0.084,0.04,0.124,0.06 c4.468,2.224,8.072,5.772,10.708,10.556c0.276,0.504,0.308,0.752,0.328,0.764c-0.044,0.052-0.248,0.252-0.884,0.496 c-5.056,1.952-10.236,3.856-15.248,5.696l-3.376,1.244C127.554,44.012,127.746,43.52,127.942,43.028z"/> <path d="M95.082,60.488c-2.196,0.848-2.664,2.212-1.552,4.308c0.88,1.656,2.004,3.22,3.22,4.652 c2.404,2.828,5.08,5.38,8.556,6.88c0.112,0.048,0.22,0.092,0.32,0.132c1.356,0.536,1.812,0.328,2.596-1.12 c1.256-2.312,2.532-4.628,3.544-7.048c2.22-5.324,4.28-10.712,6.484-16.28c-1.332,0.436-2.524,0.78-3.684,1.212 C108.066,55.624,101.55,57.988,95.082,60.488z M114.306,56.044c-1.544,3.936-3.004,7.656-4.564,11.404 c-0.908,2.18-2.088,4.352-3.232,6.448l-0.212,0.396c-0.008,0.016-0.02,0.036-0.028,0.052l-0.084-0.036 c-3.372-1.456-5.916-4.124-7.752-6.288c-1.216-1.432-2.212-2.864-2.956-4.26c-0.28-0.524-0.32-0.788-0.344-0.812 c0.052-0.052,0.244-0.212,0.744-0.408c5.084-1.968,10.3-3.884,15.34-5.736l3.26-1.2L114.306,56.044z"/> <path d="M94.066,57.7c2.816-0.736,5.624-1.54,8.376-2.48c4.72-1.612,9.396-3.352,14.448-5.168 c-0.54-0.292-0.688-0.388-0.848-0.456c-7.324-3.012-14.656-6-21.96-9.052c-0.024-0.008-0.044-0.02-0.068-0.028 c-1.204-0.476-1.904-0.044-2.428,0.948c-2.532,4.804-2.604,9.744-0.588,14.716c0.36,0.892,0.712,1.392,1.228,1.596 C92.678,57.956,93.254,57.912,94.066,57.7z M93.446,42.664c5.236,2.188,10.488,4.344,15.74,6.496l1.728,0.708 c-3.12,1.132-6.144,2.224-9.188,3.264c-2.408,0.824-5.02,1.596-8.224,2.436c-0.14,0.036-0.252,0.064-0.336,0.08 c-0.036-0.076-0.08-0.172-0.128-0.292C91.23,50.88,91.362,46.728,93.446,42.664z"/> <path d="M147.93,42.364c-3.332,0.956-6.656,1.972-9.924,3.124c-4.224,1.492-8.388,3.14-12.848,4.824 c0.444,0.272,0.552,0.356,0.672,0.404c0.992,0.396,1.984,0.788,2.98,1.18c2.112,0.836,4.228,1.672,6.34,2.512 c4.3,1.704,8.596,3.412,12.884,5.14c0.008,0.004,0.012,0.004,0.02,0.008c1.22,0.484,1.852-0.064,2.336-0.98 c2.552-4.8,2.6-9.74,0.6-14.716c-0.356-0.888-0.708-1.396-1.224-1.6C149.31,42.08,148.738,42.132,147.93,42.364z M148.53,57.376 c-4.184-1.688-8.376-3.352-12.572-5.012l-3.168-1.256l-1.732-0.684c2.592-0.992,5.128-1.952,7.684-2.856 c2.86-1.008,5.972-1.988,9.796-3.084c0.116-0.032,0.212-0.056,0.288-0.076c0.036,0.072,0.072,0.164,0.116,0.272 C150.75,49.184,150.618,53.34,148.53,57.376z"/> <path d="M95.946,38.532c3.256,1.332,6.524,2.636,9.828,3.948c3.98,1.576,8.016,3.16,12.144,4.796 c-1.132-2.328-2.036-4.352-3.08-6.308c-2.656-4.976-5.312-9.952-8.1-14.852c-0.44-0.776-0.908-1.26-1.44-1.472 c-0.676-0.268-1.456-0.096-2.416,0.464c-3.756,2.188-6.688,5.22-8.508,9.2C93.494,36.228,93.998,37.736,95.946,38.532z M96.374,35.22c1.556-3.408,4.116-6.172,7.612-8.212c0.256-0.148,0.428-0.22,0.532-0.256c0.068,0.08,0.172,0.216,0.304,0.448 c2.76,4.856,5.444,9.884,8.072,14.804c0.204,0.38,0.404,0.764,0.6,1.156l-0.952-0.376l-5.96-2.352 c-3.296-1.304-6.556-2.608-9.804-3.936c-0.44-0.18-0.588-0.352-0.608-0.4C96.146,36.028,96.134,35.748,96.374,35.22z"/> <path d="M213.742,229.392c-0.152-11.512-0.304-23.024-0.32-34.54c-0.008-4.36,0.06-8.716,0.124-13.076 c0.096-6.2,0.192-12.608,0.072-18.924c-0.172-8.632-0.912-19.948-5.168-30.872c-2.828-7.268-5.924-14.484-8.92-21.464 c-1.804-4.208-2.62-8.26-2.488-12.388c0.136-4.4-0.724-7.428-2.712-9.532c-0.088-0.092-0.204-0.156-0.296-0.244 c1.784-1.072,2.996-3.004,2.996-5.232v-1.1c0-1.624-0.648-3.096-1.684-4.192c1.036-1.096,1.684-2.568,1.684-4.192v-1.1 c0-3.372-2.748-6.12-6.12-6.12h-11.976l4.484-64.22l0.096-1.372L171.726,0l-4.64,66.416h-11.924 c0.792-2.184,1.876-5.22,2.02-5.944c0.232-1.156,0.232-1.156,0.232-1.156c0.088-0.572,0.18-1.144,0.296-1.708 c4.176-19.94-8.524-39.724-28.308-44.144c-19.812-4.412-39.428,7.432-44.66,26.96c-3.936,14.7,1.368,30.144,13.516,39.348 c4.968,4.232,13.996,6.728,14.648,6.852c1.484,0.272,2.972,0.544,4.468,0.648c2.464,0.168,4.812,0.08,7.1-0.124 c0.416,0.472,0.9,0.876,1.44,1.2c-0.092,0.088-0.208,0.152-0.296,0.244c-1.988,2.104-2.848,5.132-2.712,9.532 c0.132,4.128-0.684,8.184-2.492,12.388c-2.992,6.98-6.088,14.196-8.92,21.464c-4.256,10.924-4.996,22.24-5.168,30.872 c-0.12,6.316-0.024,12.728,0.072,18.924c0.064,4.36,0.132,8.716,0.124,13.076c-0.012,10.316-0.152,20.632-0.288,30.948 c-0.832,1.808-1.548,3.732-2.092,5.796c-1.828,6.924-1.46,14.148-0.36,20.384c-3.036-5.808-7.292-12.084-13.116-16.88 c-14.296-11.78-32.044-9.82-32.796-9.732l-1.532,0.184l0.356,1.504c0.208,0.868,5.232,21.428,19.432,33.136 c10.556,8.7,22.988,9.912,29.08,9.912c2.16,0,3.52-0.156,3.716-0.18l0.5-0.06l0.08,0.164l0.464-0.228l0.492-0.06l-0.04-0.164 l0.34-0.168c0.348-0.172,4.632-2.34,9.388-6.648c1.7,1.06,3.512,1.968,5.528,2.588c3.624,1.12,7.808,1.7,13.172,1.836 c5.436,0.136,10.696,0.168,16.588,0.168h9.056c5.896,0,11.156-0.032,16.588-0.168c5.368-0.136,9.556-0.716,13.18-1.836 c8.224-2.532,13.904-8.652,16.884-18.18c0.624-2.004,1.012-4.056,1.384-6.044c0.24-1.26,0.472-2.52,0.772-3.768 c0.232-0.972,0.468-4.984,0.464-5.488L213.742,229.392z M174.286,2.94l6.292,0.444l-0.316,4.524l-6.416,1.324L174.286,2.94z M173.686,11.5l6.416-1.32l-0.356,5.064l-6.416,1.324L173.686,11.5z M173.174,18.832l6.416-1.324L177.546,46.8l-6.42,1.356 L173.174,18.832z M170.966,50.424l6.42-1.352l-0.352,5.068l-6.42,1.352L170.966,50.424z M170.454,57.76l6.42-1.352l-0.7,10.016 h-6.324L170.454,57.76z M190.91,70.276c1.248,0,2.264,1.016,2.264,2.264v1.1c0,1.248-1.016,2.264-2.264,2.264h-61.86 c-1.248,0-2.264-1.016-2.264-2.264v-1.1c0-1.248,1.016-2.264,2.264-2.264H190.91z M156.902,251.74l0.352-5.064l6.416-1.268 l-0.356,5.064L156.902,251.74z M163.162,252.74l-0.388,5.576l-6.296-0.44l0.272-3.868L163.162,252.74z M157.418,244.412 l2.156-30.852l6.412-1.24l-2.152,30.824L157.418,244.412z M159.73,211.292l0.352-5.06l6.412-1.24l-0.352,5.06L159.73,211.292z M160.242,203.968l2.052-29.348l6.412-1.248l-2.048,29.352L160.242,203.968z M162.45,172.356l0.352-5.06l6.416-1.244l-0.356,5.06 L162.45,172.356z M162.962,165.028l1.248-17.872h6.328l-1.16,16.624L162.962,165.028z M164.478,143.304l0.536-7.648l6.42-1.36 l-0.628,9.008H164.478z M165.174,133.384l0.352-5.064l6.42-1.356l-0.356,5.068L165.174,133.384z M165.686,126.052l2.048-29.324 l6.416-1.324l-2.044,29.288L165.686,126.052z M167.89,94.46l0.344-4.92c2.252-0.036,4.384-0.072,6.332-0.104l-0.26,3.7 L167.89,94.46z M135.818,85.388c-0.548-0.008-0.884-0.016-0.9-0.016c-0.064,0-0.116,0.012-0.18,0.016h-5.692 c-1.248,0-2.264-1.016-2.264-2.264v-1.1c0-1.248,1.016-2.264,2.264-2.264h61.86c1.248,0,2.264,1.016,2.264,2.264v1.1 c0,1.248-1.016,2.264-2.264,2.264h-5.772c-0.068,0-0.116-0.012-0.184-0.016c0,0-0.32,0.004-0.86,0.016H135.818z M132.958,66.42 c-1.212-2.352-5.6-10.512-5.6-10.512l3.604,1.756c1.556,0.64,3.104,1.292,4.648,1.956c2.7,1.164,5.528,2.468,9.168,4.22 c0.844,0.408,0.964,0.7,0.964,0.704c0.02,0.064,0.012,0.392-0.284,1.04c-0.096,0.208-0.18,0.512-0.264,0.832h-12.236V66.42z M123.946,78.66c-3.38,0.348-6.788,0.032-10.188-1.056c-0.032-0.008-0.06-0.02-0.092-0.028c0.016-0.04,0.032-0.084,0.052-0.128 c2.252-5.568,4.532-11.12,6.816-16.676l3.708,8.032c-0.808,1.036-1.312,2.324-1.312,3.736v1.1c0,1.624,0.648,3.096,1.684,4.192 C124.374,78.092,124.146,78.364,123.946,78.66z M120.53,53.312l-0.156-0.348c-2.56,6.236-6.168,17.408-8.696,23.656 c-0.648,1.6-0.432,2.368,0.98,2.928c0.132,0.052,0.276,0.104,0.428,0.152c3.308,1.06,6.636,1.432,9.952,1.228 c-0.064,0.356-0.112,0.72-0.112,1.092v1.1c0,0.092,0.024,0.18,0.028,0.272c-1.716,0.112-3.464,0.164-5.312,0.036 c-8.356,0.076-15.984-5.92-17.056-6.728C89.694,68.448,84.938,54.6,88.47,41.42c4.692-17.524,22.304-28.148,40.096-24.188 c17.724,3.924,29.12,21.7,25.372,39.588c-0.132,0.628-0.236,1.26-0.336,1.896l-2.868,7.7h-3.256 c0.956-2.212,0.376-3.68-1.768-4.712c-3.06-1.472-22.688-10-22.788-9.872c0.532,1.22,5.668,11.7,7.076,14.584h-0.956 c-0.84,0-1.64,0.172-2.368,0.48L120.53,53.312z M115.126,133.392c2.808-7.208,5.892-14.392,8.868-21.34 c2.036-4.74,2.956-9.336,2.808-14.044c-0.104-3.252,0.436-5.46,1.652-6.74c1.208-1.276,3.352-1.932,6.488-2.012 c0,0,12.212,0.216,25.072,0.412c1.848-0.028,3.672-0.056,5.46-0.084l-3.752,53.72H112.23 C112.926,140.012,113.842,136.68,115.126,133.392z M120.85,222.24l-1.416,5.376l-6.056-8.076c0.964-1.208,1.956-2.304,2.956-3.32 L120.85,222.24z M117.542,215.08c2.472-2.328,4.832-4.096,6.576-5.236l-2.732,10.356L117.542,215.08z M118.894,229.652 l-1.58,5.992l-7.964-9.74c0.908-1.784,1.916-3.436,3.02-4.948L118.894,229.652z M106.822,232.3 c0.444-1.692,1.024-3.292,1.692-4.808l8.28,10.128l-2.024,7.684l-8.392-10.992C106.51,233.636,106.646,232.964,106.822,232.3z M106.01,236.552l8.224,10.772l-1.664,6.312l-6.812-8.328C105.566,242.444,105.622,239.488,106.01,236.552z M60.67,230.676 l6.384,5.264l-3.944,1.076C62.066,234.6,61.262,232.428,60.67,230.676z M63.794,238.54l4.82-1.316l5.228,4.308l-7.508,2.052 C65.374,241.856,64.538,240.164,63.794,238.54z M67.19,245.06l8.212-2.24l6.232,5.14l-10.152,3.424 C69.874,249.328,68.446,247.196,67.19,245.06z M72.59,252.752l10.54-3.556l6.6,5.44l-11.876,3.392 C75.93,256.428,74.182,254.636,72.59,252.752z M79.57,259.252l11.708-3.344l6.092,5.024l-9.184,3.096 C85.302,262.88,82.39,261.316,79.57,259.252z M90.594,264.96l8.276-2.792l6.244,5.148 C101.782,267.296,96.434,266.884,90.594,264.96z M61.71,227.964c5.74,0.024,17.468,1.22,27.22,9.26 c9.712,8.004,15.004,20.78,17.224,27.384L61.71,227.964z M109.886,263.82c-1.292-3.516-3.052-9.168-3.832-15.54l5.996,7.336 L109.886,263.82z M112.354,265.264l14.232-53.976c2.328,6.34,6.204,19.628,3.068,31.524 C126.51,254.736,117.094,262.172,112.354,265.264z M208.726,240.4c-0.372,1.96-0.716,3.812-1.28,5.6 c-2.572,8.236-7.388,13.496-14.32,15.632c-3.272,1.008-7.128,1.536-12.132,1.66c-6.736,0.172-13.212,0.176-21.02,0.164 c-7.784,0.016-14.276,0.008-21.016-0.164c-5.004-0.124-8.856-0.652-12.128-1.66c-1.376-0.424-2.644-1.008-3.852-1.68 c3.82-4.092,7.512-9.536,9.332-16.444c4.532-17.196-4.38-36.352-4.764-37.16l-0.6-1.268l-1.256,0.624 c-0.496,0.244-9.036,4.596-15.5,13.436c0.104-8.092,0.212-16.184,0.224-24.276c0.008-4.38-0.06-8.764-0.124-13.144 c-0.096-6.164-0.192-12.536-0.072-18.788c0.092-4.636,0.372-10.08,1.284-15.772h49.94l-7.808,111.9l-0.096,1.372l11.788,0.82 l1.728-24.756h42.468C209.218,237.788,208.966,239.096,208.726,240.4z M209.858,232.644h-42.532L177.33,89.388 c4.628-0.08,7.652-0.132,7.612-0.132c3.216,0.08,5.364,0.736,6.572,2.012c1.212,1.284,1.752,3.488,1.648,6.74 c-0.148,4.708,0.772,9.3,2.804,14.044c2.98,6.948,6.064,14.136,8.872,21.34c4.036,10.356,4.736,21.224,4.9,29.54 c0.12,6.252,0.024,12.624-0.072,18.788c-0.064,4.38-0.132,8.764-0.124,13.144c0.016,11.528,0.168,23.056,0.32,34.584l0.036,2.456 C209.894,232.02,209.878,232.3,209.858,232.644z"/> <rect x="184.754" y="143.32" width="13.34" height="3.856"/> <rect x="138.754" y="232.64" width="7.004" height="3.856"/> </g> </g> </g> </g>

</svg>