<?xml version="1.0" ?>

<!DOCTYPE svg  PUBLIC '-//W3C//DTD SVG 1.1//EN'  'http://www.w3.org/Graphics/SVG/1.1/DTD/svg11.dtd'>

<!-- Uploaded to: SVG Repo, www.svgrepo.com, Generator: SVG Repo Mixer Tools -->
<svg fill="#fff" width="800px" height="800px" viewBox="0 0 512 512" stroke-miterlimit="10" style="fill-rule:nonzero;clip-rule:evenodd;stroke-linecap:round;stroke-linejoin:round;" version="1.1" xml:space="preserve" xmlns="http://www.w3.org/2000/svg" xmlns:vectornator="http://vectornator.io" xmlns:xlink="http://www.w3.org/1999/xlink">

<defs/>

<g id="Layer-2" xmlns:vectornator="http://vectornator.io">

<path  d="M83.9375 31C79.6383 31 76.1562 34.4821 76.1562 38.7812C76.1562 43.0804 79.6383 46.5625 83.9375 46.5625L150.844 46.5625L168.312 87.7188L133.562 87.7188C129.263 87.7188 125.781 91.2008 125.781 95.5L125.781 249.906C125.781 321.504 179.235 379.975 246.812 384.188L246.812 465.438L177.25 465.438C172.951 465.438 169.469 468.92 169.469 473.219C169.469 477.518 172.951 481 177.25 481L331.906 481C336.205 481 339.687 477.518 339.688 473.219C339.688 468.92 336.205 465.438 331.906 465.438L262.375 465.438L262.375 384.188C329.936 379.942 383.406 321.471 383.406 249.906L383.406 169.562C383.407 169.507 383.438 169.462 383.438 169.406C383.438 169.351 383.407 169.305 383.406 169.25L383.406 156.562C412.998 152.643 435.813 126.828 435.844 95.5625C435.844 95.5412 435.844 95.5213 435.844 95.5C435.844 61.5033 408.91 33.8437 375.594 33.8438C344.862 33.8438 319.645 57.3868 315.906 87.7188L185.219 87.7188L163.188 35.75C162.806 34.8491 162.234 34.1025 161.594 33.4375C161.474 33.3117 161.347 33.2113 161.219 33.0938C160.653 32.578 160.026 32.1388 159.344 31.8125C159.157 31.7228 158.976 31.6374 158.781 31.5625C157.892 31.2206 156.967 30.9993 156 31L83.9375 31ZM367.812 50.25L367.812 76.5312L349.531 58.25C354.876 54.2622 361.061 51.482 367.812 50.25ZM383.406 50.25C390.149 51.4811 396.347 54.2381 401.688 58.2188L383.406 76.5L383.406 50.25ZM338.75 69.5L356.969 87.7188L331.688 87.7188C332.79 81.0526 335.191 74.8564 338.75 69.5ZM412.438 69.5C416.007 74.8683 418.43 81.0655 419.531 87.75C413.748 87.7388 404.918 87.7226 394.188 87.7188L412.438 69.5ZM141.344 103.281C143.487 103.281 165.913 103.281 174.906 103.281L199.625 161.625L141.344 161.625L141.344 103.281ZM191.812 103.281C236.937 103.281 280.994 103.281 323.031 103.281C323.086 103.282 323.132 103.313 323.188 103.312L367.812 103.312L367.812 149.344L367.812 161.625L216.562 161.625L191.812 103.281ZM394.562 103.312L419.531 103.312C418.436 109.888 416.083 116.041 412.594 121.344L394.562 103.312ZM383.406 114.156L401.875 132.625C396.492 136.684 390.231 139.504 383.406 140.75L383.406 114.156ZM141.344 177.188L367.812 177.188L367.812 249.906C367.812 315.785 317.023 369.031 254.562 369.031C192.116 369.031 141.344 315.799 141.344 249.906L141.344 177.188ZM165.844 236.156C161.545 236.156 158.063 239.638 158.062 243.938C158.063 302.968 203.802 350.969 260.438 350.969C264.737 350.969 268.219 347.487 268.219 343.188C268.219 338.888 264.737 335.406 260.438 335.406C212.572 335.406 173.625 294.533 173.625 243.938C173.625 239.638 170.143 236.156 165.844 236.156Z" fill="#fff" fill-rule="evenodd" opacity="1" stroke="none" xmlns:vectornator="http://vectornator.io"/>

</g>

</svg>