<!DOCTYPE svg PUBLIC "-//W3C//DTD SVG 1.1//EN" "http://www.w3.org/Graphics/SVG/1.1/DTD/svg11.dtd">
<!-- Uploaded to: SVG Repo, www.svgrepo.com, Transformed by: SVG Repo Mixer Tools -->
<svg fill="#ffffff" height="800px" width="800px" version="1.1" id="Layer_1" xmlns="http://www.w3.org/2000/svg" xmlns:xlink="http://www.w3.org/1999/xlink" viewBox="0 0 511.681 511.681" xml:space="preserve">
<g id="SVGRepo_bgCarrier" stroke-width="0"/>
<g id="SVGRepo_tracerCarrier" stroke-linecap="round" stroke-linejoin="round"/>
<g id="SVGRepo_iconCarrier"> <g> <g> <path d="M304.375,235.561c-0.244-2.196-2.236-3.76-4.416-3.54c-6.364,0.7-9.692,2.672-12.628,4.412 c-3.116,1.848-5.804,3.44-13.128,3.44c-7.668,0-11.256-1.656-15.416-3.572c-4.38-2.02-9.34-4.304-18.764-4.304 s-14.384,2.288-18.76,4.304c-4.156,1.916-7.744,3.572-15.408,3.572s-11.256-1.656-15.412-3.572 c-4.376-2.02-9.34-4.304-18.76-4.304c-9.416,0-14.38,2.284-18.756,4.304c-3.128,1.44-5.828,2.68-10.192,3.256 c-2.192,0.284-3.736,2.292-3.448,4.484c0.288,2.192,2.304,3.72,4.488,3.444c5.572-0.728,9.252-2.424,12.5-3.92 c4.16-1.92,7.748-3.572,15.412-3.572s11.256,1.656,15.412,3.572c4.376,2.02,9.34,4.304,18.76,4.304s14.38-2.284,18.756-4.304 c4.156-1.916,7.744-3.572,15.412-3.572c7.668,0,11.256,1.656,15.416,3.572c4.38,2.02,9.344,4.304,18.764,4.304 c9.516,0,13.6-2.424,17.204-4.552c2.564-1.52,4.776-2.828,9.424-3.34C303.031,239.733,304.615,237.757,304.375,235.561z"/> </g> </g> <g> <g> <path d="M300.399,203.681c-2.208,0-4,1.788-4,4v284.108c0,3.576-0.88,11.892-8.992,11.892H159.259 c-6.688,0-14.86-5.488-14.86-11.892V143.681h156c2.208,0,4-1.788,4-4c0-2.212-1.792-4-4-4h-160c-2.208,0-4,1.788-4,4v352.108 c0,11.384,12.068,19.892,22.86,19.892h128.148c10.324,0,16.992-7.808,16.992-19.892V207.681 C304.399,205.469,302.607,203.681,300.399,203.681z"/> </g> </g> <g> <g> <path d="M303.407,67.793c-39.632,0-71.876,32.244-71.876,71.876c0,11.232,2.584,22.064,7.676,32.196 c0.992,1.976,3.392,2.772,5.368,1.776l51.528-25.828l-20.16,53.988c-0.772,2.064,0.276,4.372,2.344,5.144 c8.16,3.052,16.612,4.6,25.12,4.6c39.636,0,71.876-32.244,71.876-71.876C375.283,100.037,343.039,67.793,303.407,67.793z M303.411,203.545c-6.244,0-12.46-0.94-18.532-2.804l22.276-59.676c0.576-1.54,0.148-3.28-1.076-4.376s-3-1.336-4.464-0.596 l-56.944,28.552c-3.408-7.944-5.136-16.328-5.136-24.976c0-35.224,28.656-63.876,63.876-63.876 c35.22,0,63.876,28.652,63.876,63.876S338.631,203.545,303.411,203.545z"/> </g> </g> <g> <g> <path d="M303.407,83.753c-2.208,0-4,1.788-4,4s1.792,4,4,4c26.42,0,47.916,21.496,47.916,47.916s-21.496,47.916-47.916,47.916 c-5.768,0-11.412-1.012-16.764-3.008c-2.068-0.772-4.376,0.28-5.148,2.348c-0.772,2.068,0.28,4.376,2.348,5.144 c6.256,2.332,12.836,3.516,19.564,3.516c30.832,0,55.916-25.084,55.916-55.916C359.323,108.837,334.239,83.753,303.407,83.753z"/> </g> </g> <g> <g> <path d="M278.899,93.713c-1.188-1.86-3.66-2.408-5.524-1.22c-16.208,10.336-25.884,27.968-25.884,47.172 c0,8.82,1.992,17.26,5.924,25.084c0.704,1.4,2.116,2.204,3.58,2.204c0.604,0,1.216-0.136,1.796-0.428 c1.972-0.992,2.768-3.396,1.776-5.372c-3.368-6.7-5.076-13.928-5.076-21.488c0-16.456,8.292-31.568,22.184-40.428 C279.539,98.049,280.087,95.577,278.899,93.713z"/> </g> </g> <g> <g> <path d="M192.399,71.681c-2.208,0-4,1.788-4,4v412c0,2.212,1.792,4,4,4c2.208,0,4-1.788,4-4v-412 C196.399,73.469,194.607,71.681,192.399,71.681z"/> </g> </g> <g> <g> <path d="M298.227,1.705c-1.268-1.808-3.76-2.248-5.572-0.984l-102.548,71.68c-1.812,1.268-2.252,3.76-0.988,5.572 c0.78,1.116,2.024,1.708,3.284,1.708c0.792,0,1.588-0.236,2.288-0.724l102.548-71.68C299.051,6.009,299.491,3.517,298.227,1.705z"/> </g> </g> <g> <g> <path d="M253.923,356.829c-1.912-1.908-5.584-1.152-6.584,1.356c-0.188,0.472-0.284,0.976-0.284,1.484 c0,2.212,1.812,4.02,4.02,4.02c1.836,0,3.456-1.28,3.9-3.064C255.315,359.261,254.919,357.821,253.923,356.829z"/> </g> </g> <g> <g> <path d="M226.199,328.909c-1.64-1.644-4.676-1.428-6.064,0.432c-0.524,0.692-0.804,1.536-0.804,2.404 c0,2.212,1.812,4.02,4.02,4.02c1.788,0,3.376-1.208,3.868-2.932C227.615,331.437,227.227,329.937,226.199,328.909z"/> </g> </g> <g> <g> <path d="M259.471,303.629c-2.208,0-4.02,1.808-4.02,4.02s1.812,4.02,4.02,4.02c1.636,0,3.124-1.016,3.732-2.536 c0.188-0.472,0.284-0.976,0.284-1.484C263.487,305.437,261.679,303.629,259.471,303.629z"/> </g> </g> <g> <g> <path d="M223.331,275.713c-2.208,0-4.016,1.808-4.016,4.02c0,2.212,1.808,4.016,4.016,4.016c1.516,0,2.92-0.872,3.6-2.228 c0.276-0.552,0.42-1.168,0.42-1.788C227.351,277.521,225.539,275.713,223.331,275.713z"/> </g> </g> <g> <g> <path d="M167.347,263.633c-2.208,0-4.02,1.804-4.02,4.016c0,2.212,1.812,4.02,4.02,4.02c1.636,0,3.124-1.016,3.732-2.536 c0.188-0.472,0.284-0.976,0.284-1.484C171.363,265.437,169.555,263.633,167.347,263.633z"/> </g> </g> <g> <g> <path d="M179.283,307.717c-2.208,0-4.02,1.808-4.02,4.02s1.812,4.016,4.02,4.016c1.516,0,2.92-0.876,3.596-2.232 c0.276-0.552,0.42-1.164,0.42-1.784C183.299,309.525,181.491,307.717,179.283,307.717z"/> </g> </g> <g> <g> <path d="M235.263,299.713c-2.208,0-4.02,1.808-4.02,4.02c0,2.212,1.812,4.016,4.02,4.016c1.26,0,2.464-0.608,3.216-1.612 c0.524-0.692,0.804-1.536,0.804-2.404C239.283,301.521,237.471,299.713,235.263,299.713z"/> </g> </g> <g> <g> <path d="M278.127,264.849c-1.912-1.908-5.58-1.148-6.58,1.356c-0.188,0.472-0.284,0.976-0.284,1.484 c0,2.212,1.812,4.016,4.02,4.016c1.788,0,3.372-1.212,3.864-2.932C279.543,267.377,279.155,265.877,278.127,264.849z"/> </g> </g> <g> <g> <path d="M279.283,319.713c-2.208,0-4.02,1.808-4.02,4.02c0,2.212,1.812,4.016,4.02,4.016c1.516,0,2.916-0.872,3.596-2.228 c0.276-0.552,0.42-1.168,0.42-1.788C283.299,321.521,281.491,319.713,279.283,319.713z"/> </g> </g> <g> <g> <path d="M215.299,399.713c-2.208,0-4.016,1.808-4.016,4.02c0,2.212,1.808,4.016,4.016,4.016c1.516,0,2.92-0.872,3.6-2.228 c0.276-0.552,0.42-1.168,0.42-1.788C219.319,401.521,217.507,399.713,215.299,399.713z"/> </g> </g> <g> <g> <path d="M170.215,360.761c-1.912-1.908-5.584-1.152-6.584,1.356c-0.188,0.472-0.284,0.976-0.284,1.484 c0,2.212,1.812,4.02,4.02,4.02c1.836,0,3.452-1.28,3.9-3.064C171.607,363.193,171.211,361.753,170.215,360.761z"/> </g> </g> </g>
</svg>