<?xml version="1.0" encoding="iso-8859-1"?>
<!-- Uploaded to: SVG Repo, www.svgrepo.com, Generator: SVG Repo Mixer Tools -->
<svg fill="#fff" version="1.1" id="Layer_1" xmlns="http://www.w3.org/2000/svg" xmlns:xlink="http://www.w3.org/1999/xlink" 
	 viewBox="0 0 300.644 300.644" xml:space="preserve">
<g>
	<g>
		<g>
			<path d="M164.094,7.612l-0.092,0.012c-5.192,0.82-7.244,5.468-7.6,7.816l-8.42,55.652c-3.76-1.484-7.384-3.152-10.336-5.4
				c-4.352-3.316-6.44-14.084-4.168-19.7c0.332-0.52,0.624-1.076,0.86-1.668l-3.532-1.836c-0.316,0.488-0.6,1.016-0.848,1.572
				c-2.34,3.284-8.14,4.692-13.768,6.056c-1.444,0.348-2.868,0.696-4.22,1.068c-0.232,0.064-0.456,0.148-0.68,0.228
				c-2.34-5.932-8.808-9.548-15.388-8.216c-0.312,0.064-0.592,0.192-0.896,0.272c-1.916-10.052-7.128-20.74-16.616-25.452
				c-1.628-0.808-3.068,1.636-1.432,2.448c8.96,4.448,13.632,14.596,15.376,24.048c-2.048,1.056-3.824,2.56-5.112,4.528
				c-1.924,2.932-2.584,6.416-1.864,9.8c0.576,2.696,2,4.996,3.904,6.776c-2.536,2.876-4.756,6.02-6.48,9.432
				c-3.832,7.6-5.6,16.188-5.424,26.04c-6.144,3.412-9.728,7.58-9.728,12.196c0,0.68,0.1,1.348,0.252,2.004
				c-0.06,1.308-0.136,2.612-0.136,3.94c0,36.44,20.78,134.048,47.96,152.736c-0.276,2.576-0.508,4.376-0.664,5.084
				c-1.008,2.992-3.576,3.668-8.02,4.596c-1.684,0.356-3.42,0.72-4.9,1.244c-10.144,1.756-15.076,4.38-15.076,8.012
				c0,7.692,23.676,9.744,37.668,9.744s37.668-2.052,37.668-9.744c0-3.608-4.88-6.224-14.92-7.984
				c-1.724-0.568-3.416-0.92-5.052-1.264c-4.448-0.932-7.012-1.608-7.984-4.472c-0.116-0.544-0.32-2.452-0.568-5.316
				c27.116-18.92,47.824-116.252,47.824-152.632c0-1.34-0.076-2.656-0.136-3.976c0.148-0.648,0.252-1.304,0.252-1.972
				c0-3.204-1.856-6.176-5.032-8.848c0.024-0.088,0.056-0.172,0.08-0.26c1.772-6.432,1.468-11.94-0.908-16.38
				c-2.916-5.448-8.708-8.944-14.324-11.436c6.08-39.868,8.236-51.4,8.976-54.16c3.716-0.832,21.204-2.944,60.624-6.616l1.8-0.168V0
				L164.094,7.612z M152.922,64.98l6.84-2.736c-0.592,3.816-1.232,8.008-1.924,12.536c-0.096-0.032-0.196-0.072-0.292-0.112
				c-1.396-0.536-2.808-1.048-4.224-1.564c-0.512-0.188-1.028-0.384-1.544-0.572L152.922,64.98z M137.998,74.82
				c7.66,6.2,14.124,6.008,14.924,19.316c0.504,8.364-2.82,17.608-6.352,25.096c-7.108,1.312-14.944,1.996-22.724,2.084
				c4.464-5.356,6.472-11.836,5.644-19.224c-0.88-7.84-4.148-14.848-4.58-22.872c-0.48-8.92,1.116-17.776,2.944-26.48
				C129.014,61.176,131.166,69.292,137.998,74.82z M123.182,85.056c2.012,13.512,8.172,25.328-2.36,36.252
				c-9.052-0.076-17.824-0.972-25.084-2.648c-6.664-14.56-0.528-26.624,8.636-38.608c7.068-9.24,14.156-18.464,21.236-27.696
				C123.366,63.1,121.55,74.092,123.182,85.056z M88.122,58.236c-0.564-2.64-0.048-5.356,1.46-7.652
				c1.576-2.4,4.016-4.04,6.872-4.612c0.74-0.152,1.476-0.224,2.204-0.224c4.984,0,9.46,3.376,10.504,8.272
				c0.564,2.636,0.048,5.356-1.456,7.648c-1.576,2.404-4.016,4.044-6.872,4.616C95.002,67.464,89.322,63.844,88.122,58.236z
				 M86.346,76.84c1.64-3.248,3.748-6.244,6.184-8.96c1.864,0.92,3.94,1.46,6.108,1.46c0.908,0,1.832-0.088,2.756-0.272
				c3.604-0.728,6.688-2.804,8.684-5.844c1.564-2.384,2.244-5.132,2.072-7.896c0.288-0.1,0.576-0.212,0.872-0.292
				c1.316-0.364,2.7-0.7,4.1-1.04c1.752-0.424,3.56-0.872,5.328-1.388c-9.476,12.088-20.736,24.232-28.028,37.58
				c-4.936,9.036-5.212,18.608-1.528,27.788c-1.496-0.412-2.916-0.86-4.232-1.344c-1.744-0.644-3.688-1.468-4.864-2.696
				c-1.46-1.528-1.812-3.784-2.044-5.972C80.45,95.736,81.95,85.556,86.346,76.84z M141.586,285.56
				c1.572,0.328,3.196,0.672,4.744,1.192l0.296,0.076c8.948,1.556,11.556,3.56,11.76,4.004c-0.712,2.028-12.908,5.808-33.676,5.808
				s-32.964-3.78-33.676-5.672c0.208-0.584,2.816-2.588,12.064-4.22c1.548-0.52,3.172-0.86,4.74-1.188
				c4.524-0.948,9.204-1.928,10.992-7.236c0.028-0.088,0.22-1.696,0.504-4.376c1.772,0.732,3.568,1.16,5.384,1.16
				c1.844,0,3.664-0.432,5.46-1.184c0.228,2.672,0.396,4.316,0.42,4.4C132.386,283.624,137.062,284.608,141.586,285.56z
				 M177.43,126.576c-1.172,1.976-2.988,3.712-5.376,4.928l1.028,2.024c1.588-0.808,2.908-1.856,4.068-3.004
				c-1.652,20.272-7.136,51.504-15.984,80.62c-11.408,37.544-25.04,59.96-36.456,59.96s-25.048-22.416-36.456-59.964
				c-8.708-28.652-14.148-59.324-15.896-79.616c8.644,9.084,29.54,11.164,46.828,11.164c14.344,0,26.196-1.428,26.492-1.468
				l-0.308-2.248c-13.936,1.92-64.136,4.976-73.328-11.652c-0.108-1.668-0.196-3.272-0.244-4.752c1.268,0.744,2.68,1.448,4.184,2.12
				c9.748,5.996,27.204,9.844,48.028,9.844c20.948,0,38.588-3.704,48.68-9.508c1.796-0.768,3.456-1.588,4.932-2.456
				C177.582,123.832,177.514,125.176,177.43,126.576z M177.798,113.276c0,2.84-2.728,5.788-7.56,8.436
				c-10.392,4.216-26.908,7.332-45.528,7.332c-19.752,0-37.1-3.512-47.316-8.124c-3.736-2.416-5.772-5.06-5.772-7.644
				c0-2.612,2.128-5.268,5.936-7.7c0.068,0.936,0.12,1.856,0.224,2.812c0.292,2.748,0.8,5.88,3.136,8.312
				c1.74,1.812,4.192,2.88,6.364,3.68c8.424,3.112,21.68,4.92,35.48,4.92c18.588,0,38.176-3.284,48.296-11.096
				c2.028-1.564,3.3-3.564,4.248-5.7C176.886,110.084,177.798,111.696,177.798,113.276z M172.414,89.676
				c1.872,3.496,2.068,8.016,0.58,13.424c-0.832,3.008-1.936,6.056-4.376,7.936c-4.416,3.412-11.292,5.924-19.272,7.628
				c4.384-9.716,8.532-22.756,4.732-32.8c-1.76-4.648-5.004-6.92-9.02-9.352c-3.064-1.856-5.472-3.884-7.456-6.096
				c4.372,2.748,9.412,4.648,14.36,6.444c1.396,0.508,2.788,1.012,4.164,1.536C161.658,80.52,169.37,83.992,172.414,89.676z
				 M160.266,58.996l-6.856,2.74l2.724-17.988l7.012-2.804C162.346,45.784,161.398,51.728,160.266,58.996z M163.686,37.672
				l-7.064,2.824l3.484-23.012l6.712,3.876C166.194,23.624,165.274,28.2,163.686,37.672z M179.182,16.928
				c-9.156,1.148-10.544,1.64-11.04,1.924l-7.348-4.244c0.528-1.176,1.612-2.7,3.788-3.06l14.624-1.616L179.182,16.928z
				 M204.29,14.188c-9.912,0.996-17.092,1.78-22.272,2.4l0.024-6.964l22.272-2.464L204.29,14.188z M229.054,11.792
				c-8.448,0.792-15.68,1.488-21.928,2.108l0.024-7.056l21.904-2.42V11.792z"/>
			<path d="M150.178,138.208l0.4,2.236c4.944-0.884,9.748-2.08,14.28-3.544l-0.7-2.156
				C159.726,136.176,155.018,137.344,150.178,138.208z"/>
			<path d="M96.15,154.412l-2.252-0.244c-3.02,27.916,2.752,61.004,15.84,90.788l2.076-0.916
				C98.878,214.616,93.17,181.948,96.15,154.412z"/>
			<path d="M153.27,154.412c2.98,27.536-2.732,60.204-15.664,89.632l2.076,0.916c13.084-29.784,18.86-62.876,15.84-90.788
				L153.27,154.412z"/>
			<rect x="123.574" y="159.936" width="2.268" height="85.196"/>
			<path d="M93.918,57.688c-0.484-1.068-0.496-2.384-0.028-3.612c0.484-1.276,1.416-2.304,2.564-2.82l-1.16-2.584
				c-1.828,0.82-3.304,2.424-4.056,4.404c-0.728,1.928-0.692,4.04,0.1,5.788L93.918,57.688z"/>
		</g>
	</g>
</g>
</svg>