<?xml version="1.0" encoding="iso-8859-1"?>
<!-- Uploaded to: SVG Repo, www.svgrepo.com, Generator: SVG Repo Mixer Tools -->
<svg fill="#fff" height="800px" width="800px" version="1.1" id="Layer_1" xmlns="http://www.w3.org/2000/svg" xmlns:xlink="http://www.w3.org/1999/xlink" 
	 viewBox="0 0 291.897 291.897" xml:space="preserve">
<g>
	<g>
		<g>
			<path d="M166.415,54.228l-21.996,14.38c-0.808,0.528-1.204,1.448-1.032,2.404c0.176,0.944,0.864,1.66,1.796,1.864l25.536,5.58
				c0.164,0.04,0.332,0.056,0.496,0.056c0.46,0,0.912-0.136,1.304-0.408c0.536-0.364,0.908-0.944,1.012-1.592
				c1.2-7.344-0.152-14.96-3.808-21.456c-0.32-0.572-0.868-0.988-1.496-1.14C167.607,53.756,166.959,53.876,166.415,54.228z
				 M172.079,76.264c-0.044,0.252-0.18,0.472-0.392,0.612c-0.196,0.136-0.428,0.176-0.656,0.132l-25.536-5.58
				c-0.512-0.112-0.632-0.56-0.656-0.692c-0.028-0.136-0.076-0.604,0.384-0.904l21.996-14.38c0.14-0.092,0.3-0.14,0.46-0.14
				c0.068,0,0.132,0.008,0.196,0.024c0.24,0.06,0.44,0.216,0.568,0.436C171.935,61.98,173.223,69.26,172.079,76.264z"/>
			<path d="M166.355,51.896c0.116-0.632-0.028-1.296-0.404-1.82c-4.5-6.324-11.048-10.92-18.436-12.944
				c-0.608-0.164-1.296-0.08-1.844,0.252c-0.56,0.336-0.944,0.876-1.084,1.512l-5.916,27.092c-0.208,0.94,0.172,1.9,0.956,2.436
				c0.404,0.276,0.856,0.416,1.312,0.416c0.436,0,0.876-0.128,1.268-0.388l23.112-15.02
				C165.867,53.084,166.235,52.536,166.355,51.896z M164.519,52.204l-23.112,15.02c-0.432,0.276-0.832,0.068-0.94-0.008
				c-0.112-0.08-0.472-0.376-0.356-0.916l5.916-27.092c0.056-0.236,0.196-0.436,0.408-0.564c0.136-0.084,0.292-0.124,0.452-0.124
				c0.08,0,0.16,0.008,0.24,0.032c7.064,1.932,13.324,6.332,17.624,12.376l0.004,0.004c0.144,0.204,0.196,0.448,0.152,0.692
				C164.859,51.864,164.723,52.072,164.519,52.204z"/>
			<path d="M117.103,43.456c-0.348-0.552-0.888-0.92-1.524-1.044c-0.628-0.12-1.3,0.024-1.836,0.416
				c-6.028,4.376-10.432,10.736-12.404,17.908c-0.172,0.632-0.08,1.316,0.256,1.876c0.336,0.552,0.864,0.928,1.488,1.064l25.54,5.58
				c0.172,0.04,0.344,0.06,0.512,0.06c0.748,0,1.44-0.36,1.892-1c0.56-0.792,0.584-1.796,0.072-2.612L117.103,43.456z
				 M129.823,67.464c-0.084,0.112-0.376,0.472-0.888,0.352l-25.54-5.58c-0.228-0.052-0.416-0.188-0.54-0.392
				c-0.128-0.212-0.164-0.472-0.096-0.72c1.884-6.852,6.088-12.928,11.848-17.104v-0.004c0.16-0.112,0.34-0.176,0.528-0.176
				c0.056,0,0.108,0.008,0.164,0.016c0.232,0.048,0.424,0.18,0.552,0.38l13.996,22.248
				C130.139,66.944,129.903,67.352,129.823,67.464z"/>
			<path d="M142.975,36.796c-0.36-0.532-0.932-0.9-1.572-1c-7.552-1.24-15.424,0.208-22.156,4.076
				c-0.56,0.324-0.968,0.868-1.124,1.496c-0.156,0.632-0.052,1.28,0.296,1.828l14.744,23.288c0.436,0.688,1.156,1.084,1.94,1.084
				c0.136,0,0.276-0.012,0.416-0.036c0.94-0.164,1.684-0.88,1.888-1.82l5.916-27.092C143.467,37.98,143.343,37.336,142.975,36.796z
				 M141.883,38.304L135.971,65.4c-0.12,0.54-0.572,0.656-0.704,0.68c-0.128,0.032-0.584,0.06-0.86-0.384l-14.748-23.288
				c-0.128-0.204-0.164-0.448-0.104-0.688c0.06-0.244,0.212-0.444,0.424-0.568c6.432-3.704,13.94-5.096,21.184-3.904
				c0.244,0.04,0.452,0.176,0.588,0.376C141.887,37.828,141.935,38.064,141.883,38.304z"/>
			<path d="M118.339,155.824l-20.1,4.848c-6.092,1.468-9.856,7.624-8.388,13.724l4.612,19.124c0.708,2.94,2.532,5.436,5.128,7.024
				c1.816,1.112,3.856,1.684,5.92,1.684c0.892,0,1.784-0.104,2.668-0.32l20.096-4.848c2.94-0.708,5.436-2.532,7.028-5.128
				c1.592-2.596,2.076-5.648,1.364-8.588l-4.608-19.128C130.591,158.124,124.431,154.348,118.339,155.824z M133.375,190.748
				c-1.272,2.084-3.268,3.544-5.624,4.108l-20.096,4.848c-2.356,0.56-4.792,0.176-6.876-1.092c-2.084-1.272-3.544-3.268-4.108-5.62
				l-4.612-19.124c-1.176-4.884,1.836-9.808,6.716-10.988l15.944-3.844c0.02,0.016,0.016,0.04,0.04,0.052
				c9.932,5.932,12.052,17.304,10.544,28.024c-0.1,0.712,0.992,1.02,1.092,0.3c1.54-10.932-0.612-22.38-10.268-28.72l2.748-0.664
				c0.712-0.172,1.424-0.252,2.128-0.252c4.108,0,7.852,2.808,8.856,6.972l4.612,19.124
				C135.035,186.224,134.647,188.664,133.375,190.748z"/>
			<path d="M260.559,235.248c-2.652-10.212-11.48-17.056-14.392-19.084c-2.432-5.38-3.584-11.184-1.816-16.632
				c2.096,0.62,4.224,0.98,6.372,0.78c3.864-0.356,8.6-2.424,7.068-7.068c-0.296-0.896-1.012-1.312-1.752-1.364
				c-0.248-0.128-0.536-0.212-0.876-0.22c-3.864-0.088-7.384,0.372-10.664,1.256c-0.304,0.016-0.6,0.1-0.872,0.292
				c-0.82,0.244-1.628,0.516-2.42,0.816c-2.28-0.996-4.52-2.108-6.8-3.076c-0.028-0.012-0.052-0.008-0.08-0.016
				c-3.26-3.812-15.516-17.076-31.264-21.152c-18.2-4.712-33.62,4.748-34.268,5.152l-1.344,0.84l0.984,1.244
				c0.304,0.388,4.408,5.476,10.952,10.804c-10.064,1.328-19.812,5.304-28.26,11.22c-1.396-15.392-3.196-35.508-4.996-55.648
				c-2.32-25.928-4.628-51.704-6.04-67.1l36.684,8.012l2.768,0.604l0.604-2.768c2.532-11.588,0.368-23.5-6.092-33.548
				c-6.46-10.048-16.412-16.98-28.02-19.512c-3.124-0.684-6.32-1.028-9.5-1.028c-15.044,0-28.76,7.728-36.896,19.676
				c-2.292-0.164-4.648-0.276-7.14-0.276c-0.484,0-0.936,0.02-1.4,0.036L91.747,0l-9.004,0.008l-0.02,1.176l-0.628,46.5
				c-5.532,0.292-10.564,0.872-15.04,1.716l-3.164-31.96l-8.956,0.872l0.1,1.044l3.2,32.328c-9.568,3.22-15.024,8.128-15.024,14.364
				c0,0.452,0.076,0.888,0.132,1.324c-0.164,1.492-0.276,3.036-0.372,4.676l-1.852,32.096c-0.332,5.76-2.624,34.316-4.844,61.936
				c-2.22,27.636-4.512,56.22-4.848,62.02c-0.088,1.544-0.244,3.132-0.396,4.744c-0.348,3.648-0.704,7.416-0.404,11.044
				c2.504,29.904,32.524,40.364,62.496,40.364c2.852,0,5.708-0.096,8.536-0.276c8.312-0.532,19.264-2.12,29.108-6.272
				c0.04,0.06,0.06,0.116,0.104,0.176c1.392,2.016,8.408,6.976,11.444,4.896c21.992,14.108,53.572,11.064,74.42-3.728
				c0.084-0.06,0.12-0.136,0.192-0.204c0.072-0.044,0.144-0.056,0.212-0.108c22.36-17.784,25.424-49.512,10.36-70.712
				c4.184-4.096,8.504-7.496,13.492-9.684c0.004,0,0.008,0.004,0.008,0.004c-1.992,6.096-0.864,12.612,1.708,18.672
				c-1.604,3.108-6.06,13.056-3.412,23.26c3.12,12.024,14.844,19.408,15.344,19.716l1.232,0.764l0.74-1.248
				C256.899,259.016,263.691,247.288,260.559,235.248z M253.431,195.708c-1.008,0.644-3.112,0.632-4.916,0.452
				C250.079,195.896,251.719,195.748,253.431,195.708z M192.831,182.748l8.492,2.196l-8.524,8.2c-2.548-1.276-4.952-2.7-7.168-4.24
				L192.831,182.748z M184.691,188.224c-1.776-1.28-3.428-2.568-4.92-3.848l4.716-3.788l7.008,1.816L184.691,188.224z
				 M202.615,185.28l9.068,2.348l-10.14,8.872c-0.096-0.024-0.192-0.028-0.288-0.052c-2.564-0.664-5-1.664-7.364-2.776
				L202.615,185.28z M213.015,187.972l8.468,2.192l-7.752,7.308c-3.376,0.24-6.992,0.072-10.76-0.708L213.015,187.972z
				 M222.783,190.5l8.516,2.204c-2.86,1.424-8.584,3.832-15.78,4.644L222.783,190.5z M202.355,172.524
				c13.364,3.464,24.332,14.236,28.608,18.92l-58.652-15.176C176.899,173.98,188.955,169.052,202.355,172.524z M178.879,183.64
				c-2.744-2.416-4.812-4.56-6.232-6.112l10.468,2.708L178.879,183.64z M142.143,143.744c1.908,21.26,3.808,42.468,5.228,58.136
				c-10.272,8.308-18.112,19.544-21.332,32.208c-3.664-0.648-7.524-1.22-11.644-1.664c1.88-5.992,1.636-11.488,1.616-11.848
				l-0.068-1.256l-1.252-0.084c-0.564-0.036-13.844-0.816-21.872,7.108c-1.512,1.492-2.716,3.172-3.676,4.924
				c-0.376-0.012-0.752-0.032-1.128-0.032c-1.416,0-2.784,0.108-4.16,0.204l7.968-12.824c3.184-5.132,1.74-11.804-3.128-15.252
				l0.892-59.408c0.544,0.008,1.104,0.024,1.644,0.024c3.928,0,8.04-0.208,12.152-0.52c1.332,1.56,2.892,3.004,4.736,4.176
				c4.336,2.76,9.364,3.528,13.596,3.528c5.056,0,8.984-1.088,9.276-1.172l1.212-0.344l-0.2-1.244
				c-0.048-0.304-0.732-4.32-2.864-8.896c5.88-1.52,10.332-3.316,12.156-5.244C141.575,137.412,141.859,140.572,142.143,143.744z
				 M102.995,230.112l-2.28,2.252l-2.248-6.696c0.936-0.536,1.884-1.004,2.856-1.396L102.995,230.112z M102.923,223.68
				c0.792-0.26,1.576-0.492,2.348-0.672l1.088,3.792l-1.984,1.956L102.923,223.68z M99.371,233.696l-3.016,2.976l-2.224-7.5
				c0.236-0.264,0.428-0.556,0.684-0.808c0.676-0.668,1.408-1.252,2.168-1.788L99.371,233.696z M94.983,238.028l-2.424,2.392
				l-1.896-5.656c0.58-1.384,1.268-2.748,2.16-4.02L94.983,238.028z M91.211,241.748l-2.84,2.804c0.156-1.956,0.54-4.524,1.36-7.224
				L91.211,241.748z M113.075,224.148c-0.332,4.224-1.62,11.424-6.444,16.188c-4.812,4.752-12.036,5.944-16.264,6.228
				L113.075,224.148z M106.935,222.66c1.548-0.284,2.952-0.44,4.144-0.52l-3.344,3.3L106.935,222.66z M83.695,213.068
				c-6.576-8.908-16.12-15.444-27.464-13.232l1.492-2.4c1.276-2.056,3.288-3.496,5.664-4.052c0.7-0.16,1.404-0.244,2.1-0.244
				c1.68,0,3.32,0.464,4.772,1.368l16.712,10.384c4.26,2.648,5.576,8.272,2.924,12.536l-10.916,17.564
				c-1.276,2.056-3.288,3.492-5.664,4.048c-2.376,0.556-4.816,0.156-6.872-1.12l-16.712-10.384
				c-2.056-1.276-3.496-3.288-4.052-5.664c-0.556-2.376-0.156-4.816,1.124-6.872l8.668-13.94c0.028-0.004,0.04,0.02,0.068,0.012
				c11.28-2.696,20.744,3.856,27.176,12.568C83.143,214.22,84.127,213.656,83.695,213.068z M61.195,158.116l2.344,1.496
				l-4.624,2.548c-0.428-0.716-0.828-1.428-1.18-2.14L61.195,158.116z M57.027,158.468c-0.624-1.444-1.088-2.78-1.428-3.92
				l3.96,2.524L57.027,158.468z M65.175,160.652l2.696,1.72l-6.024,3.684c-0.732-0.788-1.4-1.608-1.996-2.468L65.175,160.652z
				 M69.475,163.388l3.572,2.276l-6.82,3.84c-0.308-0.172-0.636-0.296-0.936-0.488c-0.8-0.508-1.532-1.092-2.22-1.708
				L69.475,163.388z M74.675,166.704l2.868,1.828l-5.092,3.112c-1.476-0.256-2.96-0.624-4.396-1.208L74.675,166.704z
				 M75.167,171.976l3.972-2.428l3.364,2.14C80.567,171.972,77.979,172.172,75.167,171.976z M86.639,173.764l0.408-0.116L86.623,202
				l-4.764-2.96l0.364-24.428C84.751,174.284,86.451,173.816,86.639,173.764z M80.119,174.82l-0.12,7.908l-0.764-7.844
				C79.543,174.868,79.827,174.84,80.119,174.82z M77.135,174.924l2.2,22.548l-5.14-3.196l-1.928-19.8
				C73.939,174.752,75.587,174.912,77.135,174.924z M113.831,139.624l3.572,2.276l-6.816,3.836
				c-0.312-0.172-0.636-0.296-0.936-0.488c-0.8-0.508-1.532-1.092-2.22-1.708L113.831,139.624z M106.207,142.288
				c-0.732-0.788-1.4-1.612-1.996-2.472l5.324-2.932l2.7,1.72L106.207,142.288z M119.031,142.936l2.868,1.828l-5.088,3.108
				c-1.476-0.256-2.96-0.624-4.396-1.208L119.031,142.936z M123.495,145.78l3.364,2.144c-1.936,0.284-4.524,0.484-7.34,0.284
				L123.495,145.78z M101.475,128.392c4.2-0.612,11.508-0.956,17.208,2.672c5.7,3.628,8.472,10.404,9.692,14.464L101.475,128.392z
				 M103.915,133.308l-2.532,1.396c-0.624-1.448-1.088-2.78-1.432-3.92L103.915,133.308z M105.551,134.348l2.344,1.492l-4.624,2.548
				c-0.428-0.712-0.828-1.424-1.176-2.136L105.551,134.348z M174.555,80.924l-33.92-7.408c0.26-1.216-0.224-2.388-1.1-3.272
				c-0.012-0.116-0.024-0.248-0.032-0.364c-0.084,0.024-0.168,0.068-0.252,0.092c-0.532-0.444-1.144-0.82-1.892-0.98
				c-0.336-0.072-0.668-0.108-0.992-0.108c-1.864,0-3.496,1.144-3.868,2.852l-33.736-7.368c2.212-9.928,8.184-18.408,16.84-23.904
				c8.712-5.528,19.08-7.36,29.176-5.148c10.12,2.208,18.792,8.192,24.416,16.852C174.783,60.78,176.679,70.984,174.555,80.924z
				 M136.539,30.888c2.936,0,5.912,0.312,8.892,0.964c22.48,4.908,36.848,27.268,31.948,49.688l-0.612-0.132
				c2.252-10.54,0.244-21.356-5.676-30.476c-5.952-9.164-15.128-15.496-25.836-17.836c-10.688-2.328-21.656-0.396-30.876,5.452
				c-9.172,5.82-15.496,14.816-17.844,25.336l-0.796-0.172C99.991,44.26,117.339,30.888,136.539,30.888z M91.051,51.488
				c0.476-0.016,0.944-0.04,1.456-0.04c1.668,0,3.224,0.068,4.772,0.148c-0.94,1.736-1.756,3.548-2.46,5.416
				c-0.416-0.016-0.832-0.036-1.264-0.036c-0.904,0-1.736,0.084-2.58,0.156L91.051,51.488z M90.635,74.48
				c0.032,0.004,0.068,0.008,0.1,0.012l0.208-15.316c0.848-0.072,1.672-0.164,2.608-0.164c0.184,0,0.352,0.012,0.532,0.016
				c-0.428,1.332-0.808,2.684-1.112,4.072l-0.604,2.768l2.772,0.608l33.608,7.34c-6.788,3.892-19.232,6.824-38.204,6.832
				L90.635,74.48z M90.483,84.652c20.7-0.004,36.236-3.604,43.676-9.652l0.5,0.108l0.148-0.684c0.348-0.312,0.7-0.624,1.008-0.948
				c1.144,12.388,3.06,33.716,5.108,56.588c-5.836-5.148-30.06-9.316-49.688-9.316c-0.42,0-0.86,0.024-1.296,0.04L90.483,84.652z
				 M91.227,122.22c29.792,0,49.532,7.22,49.532,10.144c0,1.384-4.476,3.724-12.288,5.808c-1.792-3.452-4.424-7.048-8.264-9.496
				c-9.516-6.064-22.336-2.516-22.876-2.36l-1.212,0.344l0.2,1.244c0.068,0.42,1.332,7.94,5.992,14.22
				c-3.524,0.224-7.18,0.384-11.08,0.384c-0.552,0-1.076-0.02-1.624-0.024l0.304-20.244C90.347,122.232,90.779,122.22,91.227,122.22
				z M83.731,73.996c0.036-0.008,0.072-0.02,0.104-0.02l0.972-71.62l4.808-0.008l-0.972,71.508c-0.036-0.004-0.068-0.008-0.1-0.012
				l-0.1,6.78c-1.652-0.02-3.26-0.056-4.808-0.12L83.731,73.996z M83.575,84.496c1.564,0.064,3.168,0.104,4.808,0.124l-0.868,57.832
				c-1.64-0.032-3.236-0.088-4.808-0.164L83.575,84.496z M82.687,143.74c1.616,0.088,3.22,0.148,4.808,0.188L87.107,169.7
				c-0.672-2.56-2.068-6.708-4.652-10.588L82.687,143.74z M84.019,169.296l-26.9-17.136c4.2-0.612,11.516-0.96,17.208,2.672
				C80.027,158.464,82.803,165.232,84.019,169.296z M63.339,81.936c1.556,0.372,3.212,0.704,4.928,1l0.032,0.336
				c-0.036,0-0.068,0-0.104-0.004l5.692,58.376c-1.684-0.168-3.312-0.36-4.884-0.568l-5.576-57.208
				c0.036-0.004,0.068-0.02,0.1-0.024L63.339,81.936z M76.019,141.852l-5.676-58.216c0.032,0,0.068,0,0.104,0l-0.032-0.34
				c3.408,0.516,7.112,0.876,11.064,1.096l-0.868,57.8C79.039,142.1,77.511,141.98,76.019,141.852z M80.591,143.6l-0.192,12.792
				c-0.96-1.096-2.048-2.112-3.26-3.032l-0.984-10.108C77.635,143.388,79.111,143.504,80.591,143.6z M74.887,151.896
				c-1.624-0.912-3.32-1.576-5.028-2.036l-0.72-7.376c1.612,0.212,3.244,0.404,4.888,0.572L74.887,151.896z M70.007,79.212
				l-1.828-18.456c3.444-0.52,9.48-0.928,13.756-1.22l-0.196,14.248c-0.032,0-0.068,0-0.1,0.008l-0.1,6.608
				C77.279,80.164,73.435,79.76,70.007,79.212z M82.043,51.684l-0.08,5.804c-4.08,0.292-10.296,0.704-13.984,1.244l-0.532-5.364
				C71.631,52.564,76.475,51.976,82.043,51.684z M57.219,20.196l4.784-0.468l5.86,59.116c-1.768-0.328-3.408-0.696-4.94-1.096
				L57.219,20.196z M60.759,77.144c-5.628-1.72-9.404-3.94-11.512-6.348c0.392-2.876,3.672-5.712,10.1-7.884L60.759,77.144z
				 M58.635,55.708l0.508,5.12c-6.004,1.944-9.924,4.568-11.364,7.752c-0.172-0.392-0.32-0.788-0.412-1.184
				c0.04-0.34,0.064-0.704,0.116-1.032l-0.24-0.04c-0.004-0.092-0.032-0.184-0.032-0.276C47.211,62.264,50.927,58.48,58.635,55.708z
				 M45.111,104.38l1.744-30.252c3.032,3.024,7.9,5.464,14.32,7.236l0.248,2.504c-0.032,0.008-0.068,0.012-0.1,0.02l3.796,38.944
				c-9.456,1.472-17.644,3.604-21.856,6.036C44.223,116.736,44.935,107.42,45.111,104.38z M43.115,130.768
				c2.976-2.04,10.792-4.728,22.14-6.548l1.616,16.568c-12.528-1.852-21.056-4.816-23.996-6.968
				C42.955,132.788,43.035,131.764,43.115,130.768z M35.015,233.228c0.16-1.66,0.316-3.296,0.408-4.888
				c0.332-5.76,2.624-34.316,4.844-61.936c0.852-10.604,1.712-21.332,2.472-30.876c4.268,2.736,13.58,5.12,24.268,6.656l0.704,7.204
				c-7.412-1.32-14.34,0.58-14.732,0.696l-1.212,0.344l0.2,1.244c0.088,0.56,2.292,13.68,11.8,19.74
				c2.016,1.284,4.18,2.104,6.348,2.648l1.836,18.828l-0.492-0.304c-5.32-3.304-12.352-1.668-15.664,3.66l-10.912,17.564
				c-1.596,2.572-2.092,5.616-1.404,8.584s2.492,5.48,5.064,7.08l8.232,5.116c-10.176,1.996-18.092,4.664-22.22,7.408
				C34.475,239.156,34.739,236.156,35.015,233.228z M34.739,244.488c2.984-2.432,12.02-5.744,24.972-8.092l5.544,3.444
				c1.812,1.124,3.864,1.708,5.956,1.708c0.872,0,1.752-0.1,2.624-0.304c2.964-0.696,5.476-2.492,7.08-5.064l1.48-2.384
				c1.824-0.164,3.684-0.292,5.624-0.292c0.02,0,0.04,0,0.056,0c-2.98,6.956-2.664,14.2-2.644,14.612l0.068,1.256l1.252,0.084
				c0.1,0.008,0.608,0.036,1.416,0.036c3.724,0,13.864-0.636,20.452-7.144c2.3-2.272,3.876-4.984,4.972-7.712
				c4.292,0.46,8.236,1.06,11.948,1.724c-1.132,5.484-1.468,11.18-0.704,17.008c0.108,0.824,0.328,1.616,0.508,2.42
				c-9.18,1.628-20.18,2.792-32.472,2.792c-29.208,0-51.648-6.404-57.604-10.608C35.043,246.848,34.867,245.688,34.739,244.488z
				 M101.407,279.984c-9.848,0.644-56.424,1.908-65.42-29.024c9.308,5.184,31.708,9.888,56.884,9.888
				c12.044,0,23.364-1.108,33.012-2.8c1.104,3.768,2.632,7.392,3.24,11.18c0.28,1.736,0.18,3.212,0.324,4.668
				C120.051,277.928,109.419,279.472,101.407,279.984z M231.071,223.132c0.108,0.392,0.252,0.768,0.344,1.168
				c4.604,19.448-1.188,38.784-16.86,51.4c-20.296,14.3-50.948,17.14-71.86,2.588c-1.008-0.692-2.716-0.012-2.94,1.2
				c-4.008-0.86-5.892-3.204-5.648-7.028c-0.752-1.42-1.016-2.86-0.792-4.316c-0.1-0.392-0.116-0.856-0.236-1.276
				c-1.684-5.852-4.164-10.54-4.572-16.828c-0.7-10.76,2.68-21.412,8.432-30.424c10.116-15.844,27.852-27.652,46.672-28.608
				c4.848,3.404,10.604,6.54,16.94,8.18c3.02,0.784,5.932,1.104,8.744,1.212c-0.116,0.332-0.244,0.66-0.284,1.06
				c-0.348,3.396,2.132,8.864,6.324,13.928c4.564,5.508,9.768,8.924,13.152,8.924c0.868,0,1.612-0.224,2.204-0.696
				C230.851,223.488,230.943,223.292,231.071,223.132z M230.627,221.644c-0.14,0.452-0.336,0.844-0.648,1.096
				c-2.048,1.652-8.084-1.204-13.768-8.076c-3.944-4.764-6.388-10.028-6.072-13.084c0.036-0.436,0.148-0.8,0.304-1.112
				c0.168,0,0.352,0.032,0.52,0.032c1.308,0,2.556-0.1,3.792-0.208c2.88,2.068,5.492,4.452,7.804,7.1
				c-0.692,0.72-1.392,1.416-2.08,2.168c-1.724,1.88,1.076,4.692,2.808,2.808c0.584-0.636,1.172-1.228,1.756-1.844
				C227.451,213.88,229.351,217.6,230.627,221.644z M225.051,204.896c-1.58-1.876-3.304-3.648-5.2-5.3
				c6.468-1.28,11.312-3.564,13.556-4.768c0.988,0.444,1.984,0.916,3,1.404C232.343,198.476,228.631,201.444,225.051,204.896z
				 M257.819,235.956c0.376,1.444,0.54,2.88,0.628,4.304l-8.148-3.336l-1.392-5.364l8.768,3.976
				C257.715,235.68,257.779,235.812,257.819,235.956z M257.171,234.064l-8.632-3.912l-1.296-4.992l6.78,2.836
				C255.283,229.816,256.375,231.848,257.171,234.064z M252.703,226.212l-5.812-2.432l-1.14-4.388
				C247.543,220.768,250.223,223.1,252.703,226.212z M242.043,239.568c-2.096-8.088,0.884-16.236,2.592-19.972l9.484,36.54
				C250.759,253.56,244.143,247.644,242.043,239.568z M255.231,255.932l-1.488-5.732l3.104,1.536
				C256.299,253.436,255.723,254.856,255.231,255.932z M257.191,250.64l-3.824-1.892l-1.044-4.024l5.644,2.624
				C257.747,248.504,257.491,249.616,257.191,250.64z M258.171,246.188l-6.216-2.888l-1.3-5.008l7.844,3.212
				C258.515,243.12,258.399,244.688,258.171,246.188z"/>
			<path d="M186.243,202.796c-0.536-2.516-4.392-1.452-3.856,1.064c0.02,0.084,0.036,0.16,0.052,0.24
				c0.536,2.516,4.392,1.452,3.856-1.064C186.279,202.956,186.263,202.876,186.243,202.796z"/>
			<path d="M177.303,218.74c-0.536-2.516-4.392-1.452-3.856,1.064c0.016,0.08,0.032,0.16,0.052,0.24
				c0.536,2.516,4.392,1.452,3.856-1.064C177.339,218.9,177.323,218.82,177.303,218.74z"/>
			<path d="M195.379,216.652c-0.536-2.516-4.392-1.452-3.856,1.064c0.016,0.08,0.036,0.16,0.052,0.24
				c0.536,2.516,4.392,1.452,3.856-1.064C195.415,216.812,195.399,216.732,195.379,216.652z"/>
		</g>
	</g>
</g>
</svg>