<!DOCTYPE svg PUBLIC "-//W3C//DTD SVG 1.1//EN" "http://www.w3.org/Graphics/SVG/1.1/DTD/svg11.dtd">
<!-- Uploaded to: SVG Repo, www.svgrepo.com, Transformed by: SVG Repo Mixer Tools -->
<svg width="800px" height="800px" viewBox="0 0 128 128" fill="none" xmlns="http://www.w3.org/2000/svg" stroke="#ffffff" stroke-width="1.7920000000000003">
<g id="SVGRepo_bgCarrier" stroke-width="0"/>
<g id="SVGRepo_tracerCarrier" stroke-linecap="round" stroke-linejoin="round" stroke="#CCCCCC" stroke-width="0.256"/>
<g id="SVGRepo_iconCarrier"> <path fill-rule="evenodd" clip-rule="evenodd" d="M73.2535 9.26712C73.2076 8.96978 72.8997 8.78091 72.5894 8.89669L35.3332 22.7959C35.1356 22.8696 35.0057 23.0592 35.0082 23.2698C35.0537 27.1119 35.11 30.9631 35.1684 34.9607C35.3358 46.4208 35.5208 59.0837 35.5207 76.1812C35.5207 82.7637 35.4728 88.2844 35.4304 93.1746C35.3616 101.113 35.3071 107.39 35.4951 113.851C35.5023 114.097 35.6768 114.287 35.9024 114.318C46.8446 115.804 71.3821 115.589 83.4883 115.265C83.7651 115.257 83.9762 115.032 83.9667 114.757C82.664 77.3677 76.416 29.7482 73.2535 9.26712ZM72.2398 7.95977C73.1153 7.63317 74.0946 8.16106 74.2418 9.11452C77.4065 29.6102 83.6613 77.2747 84.9661 114.723C84.995 115.554 84.3452 116.242 83.5151 116.264C71.4296 116.589 46.8059 116.808 35.7679 115.309C35.0395 115.21 34.5164 114.597 34.4956 113.88C34.3071 107.403 34.3617 101.095 34.4306 93.1384C34.4729 88.2493 34.5207 82.7376 34.5207 76.1812C34.5208 59.0916 34.3359 46.4389 34.1685 34.9801C34.1101 30.9812 34.0538 27.1276 34.0082 23.2817C34.0007 22.649 34.3912 22.08 34.9837 21.859L72.2398 7.95977Z" fill="#000000"/> <path fill-rule="evenodd" clip-rule="evenodd" d="M85.5789 60.6637C85.855 60.6637 86.0789 60.8876 86.0789 61.1637V65.3334C86.0789 65.6095 85.855 65.8334 85.5789 65.8334C85.3027 65.8334 85.0789 65.6095 85.0789 65.3334V61.1637C85.0789 60.8876 85.3027 60.6637 85.5789 60.6637Z" fill="#000000"/> <path fill-rule="evenodd" clip-rule="evenodd" d="M93.9593 11.4087C94.0113 11.8118 94.0058 12.2548 93.9851 12.6991C91.8525 58.3706 93.1111 99.5828 93.9992 114.971C94.0151 115.247 93.8048 115.483 93.5294 115.499C93.4594 115.503 93.3892 115.507 93.3187 115.512C91.2409 115.634 88.8956 115.773 84.9652 115.499C84.6897 115.48 84.482 115.241 84.5012 114.965C84.5204 114.69 84.7593 114.482 85.0348 114.501C88.7228 114.759 90.9813 114.647 92.9724 114.53C92.0847 98.7361 90.8744 57.879 92.9861 12.6524C93.0063 12.2208 93.0079 11.8495 92.9675 11.5367C92.9271 11.2235 92.8493 11.0087 92.7411 10.8626C92.5594 10.6173 92.1322 10.3731 90.8988 10.5732C90.4078 10.6529 88.5544 11.1133 85.7003 11.8542C82.8635 12.5905 79.0728 13.5944 74.738 14.7488C74.4712 14.8198 74.1973 14.6611 74.1262 14.3943C74.0552 14.1274 74.2139 13.8535 74.4807 13.7825C78.8156 12.628 82.6089 11.6234 85.449 10.8862C88.2719 10.1535 90.1883 9.67541 90.7387 9.58611C92.0655 9.37085 93.0126 9.54886 93.5447 10.2675C93.7935 10.6034 93.9074 11.0061 93.9593 11.4087ZM37.0018 115.458C37.0252 115.182 37.2673 114.978 37.5424 115.002C40.4112 115.246 43.433 115.444 46.5256 115.602C46.8014 115.616 47.0135 115.851 46.9993 116.127C46.9852 116.403 46.7502 116.615 46.4744 116.601C43.3729 116.442 40.3397 116.243 37.4576 115.998C37.1825 115.975 36.9784 115.733 37.0018 115.458Z" fill="#000000"/> <path fill-rule="evenodd" clip-rule="evenodd" d="M86.9268 16.0788C85.8467 14.7532 84.5898 14.4386 83.8183 14.5093C83.8111 14.5099 83.8039 14.5104 83.7967 14.5108L75.164 14.9255C75.2093 15.2025 75.2711 15.5874 75.3497 16.091C75.536 17.2849 75.8164 19.1458 76.1933 21.8174C76.947 27.1606 78.0871 35.7468 79.6329 48.7243C82.8124 75.4178 84.6146 102.357 84.9875 114.349C86.7906 114.623 89.3279 114.47 90.9891 114.318C90.863 109.002 90.6793 101.623 90.473 93.3331C89.8197 67.0836 88.9394 31.7111 88.9394 23.8721C88.9394 19.7889 88.0099 17.4081 86.9268 16.0788ZM74.1118 14.5347C74.0856 14.5393 74.0856 14.5393 74.0856 14.5393L74.0866 14.5448L74.0897 14.5629L74.1024 14.6373C74.1138 14.7042 74.1309 14.8061 74.1539 14.9453C74.1998 15.2236 74.2689 15.6509 74.3617 16.2452C74.5471 17.4337 74.8268 19.2898 75.2031 21.9571C75.9557 27.2918 77.0948 35.8708 78.6399 48.8426C81.8529 75.8171 83.6573 103.038 84.0002 114.785C84.007 115.018 84.1732 115.215 84.4012 115.261C86.5473 115.693 89.8439 115.44 91.5501 115.268C91.8101 115.242 92.006 115.02 91.9999 114.759C91.8733 109.405 91.6847 101.826 91.4721 93.2839C90.8189 67.0368 89.9394 31.6973 89.9394 23.8721C89.9394 19.6515 88.98 17.0155 87.702 15.4471C86.4253 13.8803 84.8551 13.4142 83.7384 13.5124L74.5541 13.9537C74.4108 13.9605 74.2773 14.0287 74.1877 14.1407C74.098 14.2528 74.0609 14.398 74.0856 14.5393L74.1118 14.5347Z" fill="#000000"/> <path fill-rule="evenodd" clip-rule="evenodd" d="M46.5183 114.795C46.5643 114.56 46.7699 114.391 47.009 114.391C54.5207 114.391 61.1803 114.762 67.1932 115.133C67.814 115.171 68.4277 115.209 69.0345 115.247C74.3122 115.576 79.0765 115.873 83.5 115.873C83.725 115.873 83.9222 116.023 83.982 116.24L84.982 119.867C85.0235 120.018 84.9923 120.179 84.8978 120.303C84.8032 120.427 84.6561 120.5 84.5 120.5H46.009C45.8596 120.5 45.718 120.433 45.623 120.318C45.528 120.202 45.4896 120.051 45.5183 119.904L46.5183 114.795ZM47.4206 115.391L46.6164 119.5H83.8435L83.119 116.872C78.7701 116.856 74.0964 116.564 68.9752 116.245C68.3671 116.207 67.7527 116.169 67.1317 116.131C61.2331 115.767 54.732 115.405 47.4206 115.391Z" fill="#000000"/> </g>
</svg>